<svg xmlns="http://www.w3.org/2000/svg" fill="none" stroke="currentColor" version="1.0"
    viewBox="0 0 258.000000 300.000000" class="icon size-5"
    preserveAspectRatio="xMidYMid meet">

    <g transform="translate(0.000000,300.000000) scale(0.100000,-0.100000)" fill="currentColor"
        stroke="none">
        <path
            d="M1272 2974 c-7 -16 -50 -184 -96 -374 -193 -793 -219 -890 -233 -890 -7 0 -208 97 -446 216 -420 211 -487 241 -487 224 0 -15 38 -50 365 -332 182 -157 338 -295 348 -306 18 -20 16 -22 -160 -179 -98 -87 -262 -232 -366 -322 -103 -90 -187 -167 -187 -172 0 -5 7 -9 17 -9 9 0 215 101 459 225 244 124 450 225 458 225 9 0 19 -15 25 -37 31 -119 311 -1235 311 -1239 0 -2 6 -4 14 -4 13 0 39 103 294 1142 34 137 38 147 57 142 11 -4 213 -103 449 -221 237 -118 440 -219 453 -224 64 -24 -6 45 -343 336 -333 289 -364 319 -352 336 7 10 164 150 348 312 184 162 344 304 354 316 18 20 18 21 1 21 -11 0 -222 -102 -471 -227 -249 -126 -455 -226 -458 -223 -3 3 -75 284 -161 625 -87 341 -163 631 -169 644 l-13 23 -11 -28z m158 -757 c72 -285 130 -526 128 -535 -4 -19 -233 -142 -265 -142 -13 0 -79 28 -148 62 -101 50 -125 67 -125 84 0 11 31 146 69 300 38 153 97 394 132 534 45 185 64 249 70 235 5 -11 67 -253 139 -538z m765 -316 c-78 -75 -400 -351 -410 -351 -19 0 -116 90 -109 101 6 11 513 268 529 268 5 1 1 -8 -10 -18z m-1535 -126 c138 -69 250 -129 250 -134 0 -5 -26 -30 -57 -54 -51 -41 -59 -44 -76 -32 -30 21 -350 300 -371 324 -11 12 -14 21 -7 21 6 0 124 -56 261 -125z m440 -220 c61 -30 110 -57 110 -60 0 -6 -216 -115 -228 -115 -4 0 -36 26 -71 58 l-64 58 63 57 c35 31 67 57 72 57 5 0 58 -25 118 -55z m568 4 c34 -28 62 -55 62 -59 0 -18 -115 -110 -137 -110 -33 0 -228 99 -217 110 13 13 205 110 218 110 6 0 39 -23 74 -51z m-274 -149 c58 -28 121 -59 139 -70 l35 -21 -24 -97 c-122 -496 -245 -986 -248 -989 -6 -7 -25 62 -156 585 -67 266 -119 490 -116 498 4 9 238 137 263 143 1 1 50 -22 107 -49z m-531 -13 c26 -21 47 -43 47 -47 0 -8 -447 -242 -487 -254 -13 -4 -23 -3 -23 2 0 17 392 352 404 345 6 -3 32 -24 59 -46z m1132 -121 c170 -147 210 -186 191 -186 -14 0 -516 254 -516 260 0 14 104 100 117 97 7 -1 100 -78 208 -171z" />
    </g>
</svg>